<svg width="276mm" height="303mm" viewBox="0 0 276 303" xmlns="http://www.w3.org/2000/svg" version="1.1" preserveAspectRatio="xMidYMid meet"><g id="svgGroup" stroke-linecap="round" fill-rule="evenodd" font-size="9pt" stroke="#000" stroke-width="0.25mm" fill="none" style="stroke:#000;stroke-width:0.25mm;fill:none"><path d="M 0 263 L 0 273.245 L 3 273.245 L 3 292.755 L 0 292.755 L 0 303 L 20.245 303 L 20.245 300 L 39.755 300 L 39.755 303 L 60 303 L 60 292.755 L 57 292.755 L 57 273.245 L 60 273.245 L 60 263 L 39.755 263 L 39.755 266 L 20.245 266 L 20.245 263 L 0 263 Z" id="front_outsideCutPath" stroke="#FF0000" stroke-width="0.1" style="stroke:#FF0000;stroke-width:0.1" vector-effect="non-scaling-stroke"/><path d="M 66 263 L 66 273.245 L 63 273.245 L 63 292.755 L 66 292.755 L 66 303 L 89.225 303 L 89.225 300 L 108.735 300 L 108.735 303 L 128.245 303 L 128.245 300 L 147.755 300 L 147.755 303 L 167.265 303 L 167.265 300 L 186.775 300 L 186.775 303 L 206.285 303 L 210 303 L 210 292.755 L 213 292.755 L 213 273.245 L 210 273.245 L 210 263 L 186.775 263 L 186.775 266 L 167.265 266 L 167.265 263 L 147.755 263 L 147.755 266 L 128.245 266 L 128.245 263 L 108.735 263 L 108.735 266 L 89.225 266 L 89.225 263 L 69.715 263 L 66 263 Z" id="left_outsideCutPath" stroke="#FF0000" stroke-width="0.1" style="stroke:#FF0000;stroke-width:0.1" vector-effect="non-scaling-stroke"/><path d="M 219 156 L 219 179.225 L 216 179.225 L 216 198.735 L 219 198.735 L 219 218.245 L 216 218.245 L 216 237.755 L 219 237.755 L 219 257.265 L 216 257.265 L 216 276.775 L 219 276.775 L 219 296.285 L 219 300 L 236.245 300 L 236.245 303 L 255.755 303 L 255.755 300 L 273 300 L 273 276.775 L 276 276.775 L 276 257.265 L 273 257.265 L 273 237.755 L 276 237.755 L 276 218.245 L 273 218.245 L 273 198.735 L 276 198.735 L 276 179.225 L 273 179.225 L 273 159.715 L 273 156 L 255.755 156 L 255.755 153 L 236.245 153 L 236.245 156 L 219 156 Z" id="top_outsideCutPath" stroke="#FF0000" stroke-width="0.1" style="stroke:#FF0000;stroke-width:0.1" vector-effect="non-scaling-stroke"/><path d="M 0 220 L 0 230.245 L 3 230.245 L 3 249.755 L 0 249.755 L 0 260 L 20.245 260 L 20.245 257 L 39.755 257 L 39.755 260 L 60 260 L 60 249.755 L 57 249.755 L 57 230.245 L 60 230.245 L 60 220 L 39.755 220 L 39.755 223 L 20.245 223 L 20.245 220 L 0 220 Z" id="back_outsideCutPath" stroke="#FF0000" stroke-width="0.1" style="stroke:#FF0000;stroke-width:0.1" vector-effect="non-scaling-stroke"/><path d="M 66 220 L 66 230.245 L 63 230.245 L 63 249.755 L 66 249.755 L 66 260 L 89.225 260 L 89.225 257 L 108.735 257 L 108.735 260 L 128.245 260 L 128.245 257 L 147.755 257 L 147.755 260 L 167.265 260 L 167.265 257 L 186.775 257 L 186.775 260 L 206.285 260 L 210 260 L 210 249.755 L 213 249.755 L 213 230.245 L 210 230.245 L 210 220 L 186.775 220 L 186.775 223 L 167.265 223 L 167.265 220 L 147.755 220 L 147.755 223 L 128.245 223 L 128.245 220 L 108.735 220 L 108.735 223 L 89.225 223 L 89.225 220 L 69.715 220 L 66 220 Z" id="right_outsideCutPath" stroke="#FF0000" stroke-width="0.1" style="stroke:#FF0000;stroke-width:0.1" vector-effect="non-scaling-stroke"/><path d="M 219 3 L 219 26.225 L 216 26.225 L 216 45.735 L 219 45.735 L 219 65.245 L 216 65.245 L 216 84.755 L 219 84.755 L 219 104.265 L 216 104.265 L 216 123.775 L 219 123.775 L 219 143.285 L 219 147 L 236.245 147 L 236.245 150 L 255.755 150 L 255.755 147 L 273 147 L 273 123.775 L 276 123.775 L 276 104.265 L 273 104.265 L 273 84.755 L 276 84.755 L 276 65.245 L 273 65.245 L 273 45.735 L 276 45.735 L 276 26.225 L 273 26.225 L 273 6.715 L 273 3 L 255.755 3 L 255.755 0 L 236.245 0 L 236.245 3 L 219 3 Z" id="bottom_outsideCutPath" stroke="#FF0000" stroke-width="0.1" style="stroke:#FF0000;stroke-width:0.1" vector-effect="non-scaling-stroke"/></g></svg>